<svg width="17" height="23" viewBox="0 0 17 23" fill="none" xmlns="http://www.w3.org/2000/svg">
<path opacity="0.15" d="M3.41339 22.0636C3.41339 22.1411 3.53535 22.2178 3.7723 22.2894C4.00925 22.361 4.35655 22.426 4.79438 22.4808C5.23221 22.5356 5.75199 22.579 6.32404 22.6087C6.89609 22.6383 7.50921 22.6536 8.12839 22.6536C8.74757 22.6536 9.36069 22.6383 9.93274 22.6087C10.5048 22.579 11.0246 22.5356 11.4624 22.4808C11.9002 22.426 12.2475 22.361 12.4845 22.2894C12.7214 22.2178 12.8434 22.1411 12.8434 22.0636C12.8434 21.9071 12.3466 21.7571 11.4624 21.6464C10.5782 21.5358 9.37889 21.4736 8.12839 21.4736C6.8779 21.4736 5.67862 21.5358 4.79438 21.6464C3.91015 21.7571 3.41339 21.9071 3.41339 22.0636Z" fill="#45413C"/>
<path d="M11.8134 21.2236C11.8364 21.3032 11.8424 21.3867 11.831 21.4688C11.8195 21.5508 11.791 21.6296 11.7471 21.6998C11.7032 21.7701 11.6451 21.8304 11.5764 21.8767C11.5077 21.923 11.43 21.9543 11.3484 21.9686C11.0174 22.017 10.6824 22.0321 10.3484 22.0136C9.59114 21.9857 8.85124 21.7791 8.18908 21.4106C7.52693 21.0422 6.9613 20.5224 6.53839 19.8936C4.46839 16.6336 6.34839 12.5486 6.42839 12.3936C6.49469 12.2517 6.61464 12.142 6.76186 12.0885C6.90908 12.0351 7.0715 12.0423 7.21339 12.1086C7.35528 12.1749 7.46502 12.2949 7.51847 12.4421C7.57191 12.5893 7.56469 12.7517 7.49839 12.8936C7.49839 12.9336 5.81339 16.5736 7.53339 19.2786C7.9302 19.8545 8.48273 20.3057 9.12641 20.5792C9.77009 20.8528 10.4783 20.9376 11.1684 20.8236C11.3106 20.802 11.4558 20.8327 11.5771 20.9099C11.6985 20.9871 11.7877 21.1056 11.8284 21.2436L11.8134 21.2236Z" fill="#6DD627"/>
<path d="M7.49837 12.8736C7.02631 13.981 6.77494 15.1699 6.75837 16.3736C6.75943 16.7083 6.7845 17.0425 6.83337 17.3736H5.62337C5.44803 15.6666 5.7203 13.9434 6.41337 12.3736C6.4462 12.3033 6.49255 12.2402 6.54977 12.1879C6.60698 12.1355 6.67395 12.095 6.74685 12.0685C6.81974 12.042 6.89713 12.0302 6.97461 12.0336C7.05208 12.0371 7.12811 12.0558 7.19837 12.0886C7.26863 12.1214 7.33173 12.1678 7.38408 12.225C7.43642 12.2822 7.47699 12.3492 7.50345 12.4221C7.52992 12.4949 7.54176 12.5723 7.53832 12.6498C7.53487 12.7273 7.5162 12.8033 7.48337 12.8736H7.49837Z" fill="#46B000"/>
<path d="M7.49837 12.8736C7.49837 12.9136 5.81337 16.5536 7.53337 19.2586C7.93019 19.8345 8.48272 20.2857 9.12639 20.5592C9.77007 20.8328 10.4783 20.9176 11.1684 20.8036C11.3229 20.7777 11.4813 20.8143 11.6088 20.9053C11.7363 20.9962 11.8225 21.1341 11.8484 21.2886C11.8742 21.4431 11.8377 21.6015 11.7467 21.729C11.6557 21.8566 11.5179 21.9427 11.3634 21.9686C11.0324 22.017 10.6974 22.0321 10.3634 22.0136C9.60613 21.9857 8.86622 21.7791 8.20407 21.4106C7.54191 21.0422 6.97629 20.5224 6.55337 19.8936C4.48337 16.6336 6.36337 12.5486 6.44337 12.3936C6.4762 12.3233 6.52255 12.2602 6.57977 12.2079C6.63698 12.1555 6.70395 12.115 6.77685 12.0885C6.84974 12.0621 6.92713 12.0502 7.0046 12.0537C7.08208 12.0571 7.15811 12.0758 7.22837 12.1086C7.29863 12.1414 7.36173 12.1878 7.41408 12.245C7.46642 12.3022 7.50698 12.3692 7.53345 12.4421C7.55991 12.515 7.57176 12.5924 7.56832 12.6698C7.56487 12.7473 7.5462 12.8233 7.51337 12.8936L7.49837 12.8736Z" stroke="#45413C" stroke-width="0.5"/>
<path d="M11.2634 13.8736C11.2402 13.4664 11.1165 13.0713 10.9034 12.7236C11.1125 13.0756 11.4064 13.3695 11.7584 13.5786C13.5834 14.6586 15.6434 12.4786 14.6184 10.6236L14.1784 9.8336C14.1417 9.76575 14.1316 9.68666 14.1501 9.61176C14.1686 9.53687 14.2143 9.47156 14.2784 9.4286L15.0334 8.9286C16.8084 7.7636 15.9984 4.8786 13.8784 4.9836C13.4693 5.00516 13.0722 5.12894 12.7234 5.3436C13.0753 5.13451 13.3693 4.84056 13.5784 4.4886C14.6584 2.6536 12.4984 0.6086 10.6284 1.6536L9.83838 2.0936C9.76995 2.12984 9.69044 2.13916 9.61549 2.11973C9.54054 2.1003 9.47558 2.05352 9.43338 1.9886L8.93338 1.2386C7.77338 -0.5564 4.88838 0.2536 4.99838 2.3736C5.01862 2.78131 5.14253 3.17712 5.35838 3.5236C5.14655 3.16812 4.85139 2.86952 4.49838 2.6536C2.67338 1.5736 0.613376 3.7536 1.63838 5.6086L2.07838 6.3986C2.11461 6.46703 2.12393 6.54653 2.1045 6.62148C2.08507 6.69644 2.03829 6.7614 1.97338 6.8036L1.22338 7.3036C-0.551624 8.4686 0.258376 11.3536 2.37838 11.2486C2.78555 11.2254 3.18064 11.1017 3.52838 10.8886C3.17702 11.0963 2.88313 11.3885 2.67338 11.7386C1.59338 13.5686 3.76838 15.6286 5.62838 14.6036L6.41838 14.1536C6.48622 14.1169 6.56532 14.1068 6.64021 14.1253C6.71511 14.1438 6.78041 14.1895 6.82338 14.2536L7.32338 15.0086C8.49838 16.8036 11.3684 15.9936 11.2634 13.8736Z" fill="#6DD627"/>
<path d="M5.35339 3.5236C5.14297 3.1687 4.84957 2.87016 4.49839 2.6536C2.67339 1.5736 0.613386 3.7536 1.63839 5.6086L2.07839 6.3986C1.39339 3.5336 4.63839 2.3436 5.99839 4.5986L5.35339 3.5236ZM8.93839 3.0386L9.43839 3.7936C9.48135 3.85767 9.54666 3.90342 9.62155 3.92192C9.69644 3.94041 9.77554 3.93031 9.84339 3.8936L10.6334 3.4536C10.891 3.31553 11.1734 3.23005 11.4643 3.20212C11.7553 3.17419 12.0488 3.20437 12.328 3.29091C12.6071 3.37744 12.8663 3.51861 13.0904 3.70619C13.3145 3.89378 13.4991 4.12404 13.6334 4.3836C14.5684 2.5886 12.4484 0.6536 10.6284 1.6536L9.83839 2.0936C9.76996 2.12984 9.69045 2.13916 9.6155 2.11973C9.54055 2.1003 9.47559 2.05352 9.43339 1.9886L8.93339 1.2386C7.77339 -0.5564 4.88839 0.2536 4.99839 2.3736C5.01538 2.66154 5.08309 2.94421 5.19839 3.2086C5.37982 2.87963 5.64266 2.60273 5.96174 2.40441C6.28082 2.2061 6.64546 2.093 7.02077 2.07594C7.39607 2.05888 7.76946 2.13843 8.10522 2.30698C8.44098 2.47554 8.72785 2.72745 8.93839 3.0386ZM1.22339 9.1536L1.99839 8.6536C2.0633 8.6114 2.11008 8.54643 2.12951 8.47148C2.14894 8.39653 2.13962 8.31703 2.10339 8.2486L1.66339 7.4586C1.60255 7.3602 1.54746 7.25836 1.49839 7.1536L1.22339 7.3386C0.788712 7.62546 0.471094 8.05845 0.32802 8.55921C0.184946 9.05997 0.225871 9.5954 0.443387 10.0686C0.608651 9.6941 0.879764 9.37606 1.22339 9.1536Z" fill="#9CEB60"/>
<path d="M10.9034 12.7236C11.1165 13.0713 11.2402 13.4664 11.2634 13.8736C11.3684 15.9936 8.49838 16.8036 7.32338 15.0086L6.82338 14.2536C6.78041 14.1895 6.71511 14.1438 6.64021 14.1253C6.56532 14.1068 6.48622 14.1169 6.41838 14.1536L5.62838 14.6036C3.76838 15.6286 1.59338 13.5686 2.67338 11.7386C2.88313 11.3885 3.17702 11.0963 3.52838 10.8886C3.18064 11.1017 2.78555 11.2254 2.37838 11.2486C0.258376 11.3536 -0.551624 8.4686 1.22338 7.3036L1.97338 6.8036C2.03829 6.7614 2.08507 6.69644 2.1045 6.62148C2.12393 6.54653 2.11461 6.46703 2.07838 6.3986L1.63838 5.6086C0.613376 3.7536 2.67338 1.5736 4.49838 2.6536C4.85139 2.86952 5.14655 3.16812 5.35838 3.5236C5.14253 3.17712 5.01862 2.78131 4.99838 2.3736C4.88838 0.2536 7.77338 -0.5564 8.93338 1.2386L9.43338 1.9886C9.47558 2.05352 9.54054 2.1003 9.61549 2.11973C9.69044 2.13916 9.76995 2.12984 9.83838 2.0936L10.6284 1.6536C12.4984 0.6086 14.6584 2.6536 13.5784 4.4886C13.3693 4.84056 13.0753 5.13451 12.7234 5.3436C13.0722 5.12894 13.4693 5.00516 13.8784 4.9836C15.9984 4.8786 16.8084 7.7636 15.0334 8.9286L14.2784 9.4286C14.2143 9.47156 14.1686 9.53687 14.1501 9.61176C14.1316 9.68666 14.1417 9.76575 14.1784 9.8336L14.6184 10.6236C15.6434 12.4786 13.5834 14.6586 11.7584 13.5786C11.4064 13.3695 11.1125 13.0756 10.9034 12.7236ZM10.9034 12.7236L9.55838 10.4936M5.35338 3.5236L6.69838 5.7536M10.4984 6.6936L12.7234 5.3486M3.52838 10.8986L5.75838 9.5536" stroke="#45413C" stroke-width="0.5" stroke-linecap="round" stroke-linejoin="round"/>
</svg>
